<svg width="348" height="30" viewBox="0 0 348 30" fill="none" xmlns="http://www.w3.org/2000/svg">
<path d="M168.194 22.6214L170.299 27.3752C173.762 28.258 176.275 26.764 176.275 24.1833C176.275 19.4974 166.496 20.6519 166.496 13.0458C166.496 8.56365 169.891 6.66212 173.762 6.66212C176.275 6.66212 178.041 7.20542 179.671 8.08827V13.1816H177.973L176.003 8.90321C172.88 8.22409 170.842 9.24277 170.842 11.8234C170.842 16.5772 180.689 15.4906 180.689 22.9609C180.689 27.4431 177.09 29.7521 172.336 29.7521C170.299 29.7521 168.397 29.2088 166.428 28.1222V22.6214H168.194ZM47.9219 22.6214V28.1222C49.8914 29.2088 51.7929 29.7521 53.8303 29.7521C58.5841 29.7521 62.1834 27.4431 62.1834 22.9609C62.1834 15.4227 52.3362 16.5772 52.3362 11.8234C52.3362 9.24277 54.3056 8.22409 57.4975 8.90321L59.4669 13.1816H61.1647V8.08827C59.5349 7.20542 57.7691 6.66212 55.2564 6.66212C51.3854 6.66212 47.9899 8.56365 47.9899 13.0458C47.9899 20.6519 57.7691 19.5653 57.7691 24.1833C57.7691 26.764 55.3243 28.258 51.7929 27.3752L49.6877 22.6214H47.9219ZM290.163 9.71815L286.632 21.1273L285.749 24.455H285.613L284.662 21.1273L280.995 9.58233L283.168 8.63156V7.06959H274.068V8.63156L275.97 9.58233L282.217 29.4125H286.156L292.472 9.71815L294.645 8.63156V7.06959H287.514V8.63156L290.163 9.71815ZM233.66 5.16807L233.525 26.6282L231.012 27.7148V29.2767H239.705V27.7148L236.309 26.6282L236.173 12.7063L236.105 9.24277L236.241 9.17486L237.939 12.0951L249.212 29.3446H251.861L251.929 5.30389L254.102 4.2173V2.65533H246.02V4.2173L249.144 5.30389L249.348 16.8489L249.416 20.3124L249.28 20.3803L247.582 17.4601L237.599 2.65533H231.012V4.2173L233.66 5.16807ZM329.416 9.37859L335.189 20.3124V26.9677L332.54 27.7827V29.3446H342.591V27.7827L339.942 26.9677V19.837L345.307 9.71815L347.209 8.63156V7.06959H340.282V8.63156L342.795 9.71815L340.35 14.8115L339.127 17.528H338.992L337.701 14.7436L334.917 9.37859L337.022 8.56365V7.00168H327.854V8.56365L329.416 9.37859ZM309.042 9.51441L308.907 26.6282L307.005 27.7148V29.2767H314.136V27.7148L311.284 26.6282L311.148 16.3056L311.08 12.8421L311.216 12.7742L312.913 15.6944L322.014 29.3446H324.391L324.526 9.65024L326.428 8.56365V7.00168H319.297V8.56365L322.149 9.65024L322.285 17.6638L322.353 21.1273L322.217 21.1952L320.52 18.275L313.049 7.00168H307.073V8.56365L309.042 9.51441ZM298.312 9.37859V26.9677L296.139 27.7827V29.3446H305.239V27.7827L303.066 26.9677V9.37859L305.239 8.56365V7.00168H296.139V8.56365L298.312 9.37859ZM274.611 18.2071C274.611 25.6774 269.857 29.7521 264.968 29.7521C260.078 29.7521 255.324 25.6774 255.324 18.2071C255.324 10.7368 260.078 6.66212 264.968 6.66212C269.857 6.66212 274.611 10.6689 274.611 18.2071ZM269.586 18.2071C269.586 11.9592 267.481 8.76739 264.968 8.76739C262.387 8.76739 260.35 11.9592 260.35 18.2071C260.35 24.455 262.455 27.6468 264.968 27.6468C267.548 27.6468 269.586 24.3871 269.586 18.2071ZM218.109 1.16127H212.88L210.231 5.10015L210.978 5.91509L218.516 2.11204L218.109 1.16127ZM204.934 27.7827V29.3446H221.504V22.5535H219.807L217.973 27.1715H211.861V19.09L217.565 19.7012V16.3735L211.861 16.9847V9.24277H217.565L219.263 13.5212H220.961V7.00168H204.934V8.56365L207.107 9.37859V26.9677L204.934 27.7827ZM185.307 9.37859V26.9677L183.134 27.7827V29.3446H192.234V27.7827L190.061 26.9677V21.1273L191.759 19.1579L196.513 26.9677L194.747 27.7827V29.3446H203.644V27.7827L202.149 27.0356L195.019 15.4906L200.18 9.58233L202.285 8.63156V7.06959H195.019V8.63156L196.92 9.58233L192.099 15.4906L190.197 18.0713L190.061 18.0034V9.37859L192.234 8.56365V7.00168H183.134V8.56365L185.307 9.37859ZM148.635 0.617981L147.82 1.36501L151.827 5.64345H155.494L159.501 1.36501L158.618 0.617981L153.796 2.58742L148.635 0.617981ZM164.866 27.7827V29.3446C163.779 29.6163 163.236 29.7521 162.421 29.7521C155.969 29.7521 157.396 19.5653 153.593 19.5653H152.302V26.9677L154.815 27.7827V29.3446H145.375V27.7827L147.548 26.9677V9.37859L145.036 8.56365V7.00168H155.155C158.89 7.00168 161.742 8.69947 161.742 12.7063C161.742 15.6944 159.84 17.6638 156.852 18.4109V18.5467C162.285 19.5653 161.402 27.6468 164.866 27.7827ZM157.056 13.1137C157.056 10.4652 155.902 9.24277 153.796 9.24277H152.302V17.3922H153.389C155.63 17.3922 157.056 15.8981 157.056 13.1137ZM139.806 1.16127H134.577L131.929 5.10015L132.676 5.91509L140.214 2.11204L139.806 1.16127ZM144.085 27.7827V29.3446H134.985V27.7827L137.226 26.9677L135.8 22.3497H129.416L128.058 26.764L130.638 27.7148V29.2767H123.508V27.7148L125.681 26.764L131.997 6.86586H135.936L142.251 26.8998L144.085 27.7827ZM135.121 20.1766L133.491 15.1511L132.608 11.8234H132.472L131.589 15.1511L130.027 20.1766H135.121ZM123.644 17.8676C123.644 25.0662 119.637 29.3446 113.864 29.3446H104.221V27.7827L106.394 26.9677V9.37859L104.221 8.56365V7.00168H113.864C119.637 7.00168 123.644 10.601 123.644 17.8676ZM118.618 17.8676C118.618 12.0272 116.377 9.17486 112.846 9.17486H111.148V27.1035H112.846C116.309 27.1715 118.618 23.708 118.618 17.8676ZM102.455 18.2071C102.455 25.6774 97.7012 29.7521 92.8116 29.7521C87.9219 29.7521 83.1681 25.6774 83.1681 18.2071C83.1681 10.7368 87.9219 6.66212 92.8116 6.66212C97.7012 6.66212 102.455 10.6689 102.455 18.2071ZM97.4296 18.2071C97.4296 11.9592 95.3243 8.76739 92.8116 8.76739C90.2309 8.76739 88.1936 11.9592 88.1936 18.2071C88.1936 24.455 90.2989 27.6468 92.8116 27.6468C95.3922 27.6468 97.4296 24.3871 97.4296 18.2071ZM71.4873 20.7878V26.9677L74.3396 27.7827V29.3446H64.5603V27.7827L66.7335 26.9677V9.37859L64.5603 8.56365V7.00168H74.3396C78.2785 7.00168 81.2666 8.97112 81.2666 13.7929C81.2666 18.5467 78.1427 20.7878 74.068 20.7878H71.4873ZM71.4873 18.6146H72.7097C75.0866 18.6146 76.309 17.0526 76.309 13.8608C76.309 10.6689 75.1545 9.24277 72.9135 9.24277H71.4194V18.6146H71.4873ZM45.545 18.2071C45.545 25.6774 40.7912 29.7521 35.9016 29.7521C31.0119 29.7521 26.2581 25.6774 26.2581 18.2071C26.2581 10.7368 31.0119 6.66212 35.9016 6.66212C40.7233 6.66212 45.545 10.6689 45.545 18.2071ZM40.5196 18.2071C40.5196 11.9592 38.4143 8.76739 35.9016 8.76739C33.3209 8.76739 31.2836 11.9592 31.2836 18.2071C31.2836 24.455 33.3888 27.6468 35.9016 27.6468C38.4143 27.6468 40.5196 24.3871 40.5196 18.2071ZM0.655396 29.3446H10.7063V27.7827L8.1936 26.9677V16.9168H17.5654V27.0356L15.0527 27.7827V29.3446H25.1036V27.7827L22.5909 26.9677V5.03224L25.1036 4.2173V2.65533H15.0527V4.2173L17.5654 5.03224V14.4041H8.1936V5.03224L10.7063 4.2173V2.65533H0.655396V4.2173L3.16813 5.03224V26.9677L0.655396 27.7827V29.3446Z" fill="white"/>
</svg>
